<svg width="1048" height="180" viewBox="0 0 1048 180" fill="none" xmlns="http://www.w3.org/2000/svg">
<path d="M74.75 180C27.5 180 0.75 155 5.21541e-08 117.5L41 117.5C42.5 134 54.25 146.25 77 146.25H79C95.25 146.25 104 138 104 128C104 119.25 99.75 114.25 85.5 111.25L56.5 105.25C23.25 98 8.5 80.75 8.5 54.5C8.5 25.5 34.25 -9.53674e-06 78 -9.53674e-06C121.5 -9.53674e-06 147.75 24 148 58.75H107C105.75 42 93.75 34 77.75 34H75.75C59.5 34 49.5 42.25 49.5 52C49.5 61.75 55 66.25 70.25 69.25L95.25 74.25C126.75 80.5 145.25 96.5 145.25 124.5C145.25 156 118.75 180 74.75 180ZM245.348 180C194.598 180 172.848 155 172.848 115V2.49999L213.848 2.49999V110.5C213.848 133.75 223.348 145 244.348 145H246.598C267.598 145 277.098 133.75 277.098 110.5L277.098 2.49999L318.098 2.49999L318.098 115C318.098 155 296.348 180 245.348 180ZM352.082 177.5L352.082 2.49999L414.082 2.49999L452.832 131.5L490.082 2.49999L551.832 2.49999V177.5H512.832V48.25L473.832 177.5L431.582 177.5L390.832 46.5L390.832 177.5H352.082ZM587.434 177.5V2.49999L649.434 2.49999L688.184 131.5L725.434 2.49999L787.184 2.49999V177.5H748.184V48.25L709.184 177.5H666.934L626.184 46.5V177.5L587.434 177.5ZM822.785 177.5V2.49999L863.785 2.49999V177.5H822.785ZM945.951 177.5V38.5L885.701 38.5V2.49999L1047.45 2.49999V38.5L986.951 38.5V177.5H945.951Z" fill="#414141"/>
</svg>
