<svg width="332" height="59" viewBox="0 0 332 59" fill="none" xmlns="http://www.w3.org/2000/svg">
<path d="M15.36 57.5195L-1.94311e-05 4.71953H11.76L22.16 48.3195L32.72 4.71953H43.28L54 48.3195L64.32 4.71953H75.6L60.24 57.5195H47.84L40.48 28.7195L38 16.2395H37.84L35.36 28.7195L28.08 57.5195H15.36ZM82.19 10.7995C80.3233 10.7995 78.8833 10.3462 77.87 9.43953C76.91 8.47953 76.43 7.1462 76.43 5.43953C76.43 3.73286 76.91 2.4262 77.87 1.51953C78.8833 0.612863 80.3233 0.159531 82.19 0.159531C84.0033 0.159531 85.39 0.612863 86.35 1.51953C87.3633 2.4262 87.87 3.73286 87.87 5.43953C87.87 7.1462 87.3633 8.47953 86.35 9.43953C85.39 10.3462 84.0033 10.7995 82.19 10.7995ZM86.43 17.5195V57.5195H77.87V17.5195H86.43ZM109.023 58.3195C105.023 58.3195 101.37 57.5462 98.0631 55.9995C94.7564 54.4529 92.1431 52.2662 90.2231 49.4395L96.1431 44.3195C97.3164 46.5062 98.9964 48.2662 101.183 49.5995C103.423 50.8795 106.09 51.5195 109.183 51.5195C111.636 51.5195 113.583 51.0929 115.023 50.2395C116.463 49.3862 117.183 48.1862 117.183 46.6395C117.183 45.6262 116.836 44.7462 116.143 43.9995C115.503 43.1995 114.25 42.5862 112.383 42.1595L103.983 40.3995C99.7164 39.5462 96.6764 38.1862 94.8631 36.3195C93.0498 34.3995 92.1431 31.9729 92.1431 29.0395C92.1431 26.8529 92.7831 24.8262 94.0631 22.9595C95.3431 21.0929 97.2098 19.5995 99.6631 18.4795C102.17 17.3062 105.156 16.7195 108.623 16.7195C112.623 16.7195 116.036 17.4395 118.863 18.8795C121.69 20.2662 123.85 22.2662 125.343 24.8795L119.423 29.8395C118.41 27.7062 116.916 26.1329 114.943 25.1195C112.97 24.0529 110.916 23.5195 108.783 23.5195C107.076 23.5195 105.61 23.7329 104.383 24.1595C103.156 24.5862 102.223 25.1729 101.583 25.9195C100.943 26.6662 100.623 27.5462 100.623 28.5595C100.623 29.6262 101.023 30.5595 101.823 31.3595C102.623 32.1595 104.063 32.7729 106.143 33.1995L115.263 35.1195C119.103 35.8662 121.796 37.1462 123.343 38.9595C124.943 40.7195 125.743 42.8795 125.743 45.4395C125.743 47.9995 125.076 50.2662 123.743 52.2395C122.41 54.1595 120.49 55.6529 117.983 56.7195C115.476 57.7862 112.49 58.3195 109.023 58.3195ZM147.689 58.3195C143.689 58.3195 140.169 57.4929 137.129 55.8395C134.089 54.1862 131.715 51.8129 130.009 48.7195C128.355 45.5729 127.529 41.8395 127.529 37.5195C127.529 33.1995 128.355 29.4929 130.009 26.3995C131.715 23.2529 134.062 20.8529 137.049 19.1995C140.035 17.5462 143.422 16.7195 147.209 16.7195C151.102 16.7195 154.409 17.5195 157.129 19.1195C159.849 20.7195 161.929 22.9062 163.369 25.6795C164.809 28.4529 165.529 31.5995 165.529 35.1195C165.529 36.0795 165.502 36.9862 165.449 37.8395C165.395 38.6929 165.315 39.4395 165.209 40.0795H133.049V33.5195H161.449L157.209 34.7995C157.209 31.1729 156.302 28.3995 154.489 26.4795C152.675 24.5062 150.195 23.5195 147.049 23.5195C144.755 23.5195 142.755 24.0529 141.049 25.1195C139.342 26.1862 138.035 27.7862 137.129 29.9195C136.222 31.9995 135.769 34.5595 135.769 37.5995C135.769 40.5862 136.249 43.1195 137.209 45.1995C138.169 47.2795 139.529 48.8529 141.289 49.9195C143.049 50.9862 145.129 51.5195 147.529 51.5195C150.195 51.5195 152.355 51.0129 154.009 49.9995C155.662 48.9862 156.969 47.5729 157.929 45.7595L164.729 48.9595C163.769 50.8795 162.462 52.5595 160.809 53.9995C159.209 55.3862 157.289 56.4529 155.049 57.1995C152.809 57.9462 150.355 58.3195 147.689 58.3195ZM170.339 57.5195V17.5195H177.619L178.419 24.7195C179.485 22.1062 181.059 20.1329 183.139 18.7995C185.272 17.4129 187.885 16.7195 190.979 16.7195C191.779 16.7195 192.579 16.7995 193.379 16.9595C194.179 17.0662 194.845 17.2529 195.379 17.5195L194.179 25.0395C193.592 24.8262 192.925 24.6662 192.179 24.5595C191.485 24.3995 190.525 24.3195 189.299 24.3195C187.645 24.3195 186.019 24.7729 184.419 25.6795C182.819 26.5329 181.485 27.8395 180.419 29.5995C179.405 31.3595 178.899 33.5995 178.899 36.3195V57.5195H170.339ZM221.253 48.6395H249.093V57.5195H210.213V4.71953H221.253V48.6395ZM273.94 31.9995C273.94 29.7062 273.274 27.9195 271.94 26.6395C270.66 25.3595 268.954 24.7195 266.82 24.7195C264.847 24.7195 263.114 25.2262 261.62 26.2395C260.127 27.2529 259.034 28.9329 258.34 31.2795L248.98 28.3995C249.887 24.8795 251.86 22.0529 254.9 19.9195C257.994 17.7862 262.127 16.7195 267.3 16.7195C270.82 16.7195 273.887 17.2795 276.5 18.3995C279.114 19.4662 281.14 21.0929 282.58 23.2795C284.074 25.4662 284.82 28.2129 284.82 31.5195V47.7595C284.82 49.7862 285.78 50.7995 287.7 50.7995C288.607 50.7995 289.46 50.6662 290.26 50.3995L289.62 57.1995C288.234 57.8929 286.5 58.2395 284.42 58.2395C282.554 58.2395 280.874 57.9195 279.38 57.2795C277.887 56.6395 276.714 55.6795 275.86 54.3995C275.007 53.0662 274.58 51.4129 274.58 49.4395V49.1195L276.5 48.7995C276.18 50.8262 275.3 52.5595 273.86 53.9995C272.42 55.3862 270.66 56.4529 268.58 57.1995C266.554 57.9462 264.447 58.3195 262.26 58.3195C259.54 58.3195 257.194 57.9195 255.22 57.1195C253.247 56.2662 251.727 55.0395 250.66 53.4395C249.594 51.8395 249.06 49.8662 249.06 47.5195C249.06 44.5329 250.02 42.1062 251.94 40.2395C253.86 38.3195 256.607 37.0129 260.18 36.3195L275.22 33.2795L275.14 40.0795L265.54 41.9995C263.727 42.3729 262.34 42.8795 261.38 43.5195C260.474 44.1062 260.02 45.0929 260.02 46.4795C260.02 47.8129 260.5 48.8262 261.46 49.5195C262.474 50.2129 263.674 50.5595 265.06 50.5595C266.18 50.5595 267.274 50.4262 268.34 50.1595C269.407 49.8929 270.367 49.4662 271.22 48.8795C272.074 48.2929 272.74 47.4929 273.22 46.4795C273.7 45.4662 273.94 44.2395 273.94 42.7995V31.9995ZM314.598 58.3195C312.145 58.3195 309.905 57.8129 307.878 56.7995C305.905 55.7329 304.251 54.2929 302.918 52.4795C301.638 50.6129 300.758 48.5329 300.278 46.2395L301.398 44.7995L300.758 57.5195H291.078V-0.000472069H302.038V28.7995L300.998 27.1195C301.851 24.1329 303.478 21.6529 305.878 19.6795C308.278 17.7062 311.291 16.7195 314.918 16.7195C318.065 16.7195 320.918 17.5462 323.478 19.1995C326.038 20.8529 328.038 23.2262 329.478 26.3195C330.971 29.4129 331.718 33.1729 331.718 37.5995C331.718 41.9195 330.971 45.6262 329.478 48.7195C328.038 51.8129 326.011 54.1862 323.398 55.8395C320.838 57.4929 317.905 58.3195 314.598 58.3195ZM311.318 49.9195C314.251 49.9195 316.545 48.8795 318.198 46.7995C319.905 44.6662 320.758 41.5729 320.758 37.5195C320.758 33.4662 319.931 30.3995 318.278 28.3195C316.625 26.1862 314.331 25.1195 311.398 25.1195C309.478 25.1195 307.825 25.6262 306.438 26.6395C305.051 27.6529 303.958 29.0929 303.158 30.9595C302.411 32.8262 302.038 35.0395 302.038 37.5995C302.038 40.2129 302.411 42.4529 303.158 44.3195C303.958 46.1329 305.051 47.5195 306.438 48.4795C307.878 49.4395 309.505 49.9195 311.318 49.9195Z" fill="currentColor"/>
</svg>
